<?xml version="1.0" encoding="utf-8"?>
<!-- Generator: Adobe Illustrator 16.0.0, SVG Export Plug-In . SVG Version: 6.00 Build 0)  -->
<!DOCTYPE svg PUBLIC "-//W3C//DTD SVG 1.1//EN" "http://www.w3.org/Graphics/SVG/1.1/DTD/svg11.dtd">
<svg version="1.1" id="图层_1" xmlns="http://www.w3.org/2000/svg" xmlns:xlink="http://www.w3.org/1999/xlink" x="0px" y="0px"
	 width="307.37px" height="80px" viewBox="0 0 307.37 80" enable-background="new 0 0 307.37 80" xml:space="preserve">
<g>
	<rect x="12.318" y="11.5" fill="none" width="257" height="68"/>
	<path d="M45.691,22.779h-17.52v15.176h16.23v5.156h-16.23v19.834h-5.859V17.564h23.379V22.779z"/>
	<path d="M79.851,48.208H57.175c0.098,3.458,1.044,6.127,2.842,8.012c1.797,1.886,4.307,2.828,7.529,2.828
		c3.633,0,6.962-1.162,9.99-3.486v5.127c-2.852,2.012-6.631,3.018-11.338,3.018c-4.688,0-8.345-1.484-10.972-4.453
		c-2.627-2.969-3.94-7.09-3.94-12.364c0-4.961,1.44-9.053,4.321-12.275c2.881-3.223,6.46-4.834,10.737-4.834
		c4.238,0,7.548,1.362,9.932,4.087c2.383,2.725,3.574,6.538,3.574,11.44V48.208z M74.109,43.609c-0.02-2.93-0.713-5.195-2.08-6.797
		c-1.367-1.601-3.292-2.402-5.771-2.402c-2.285,0-4.263,0.85-5.933,2.549s-2.72,3.916-3.149,6.65H74.109z"/>
	<path d="M114.89,62.945h-5.713V44.517c0-6.66-2.432-9.99-7.295-9.99c-2.52,0-4.59,0.938-6.211,2.813
		c-1.622,1.875-2.432,4.248-2.432,7.119v18.487h-5.742V30.542h5.742v5.361h0.117c2.441-4.082,5.986-6.123,10.635-6.123
		c3.555,0,6.259,1.138,8.115,3.413c1.855,2.275,2.783,5.591,2.783,9.946V62.945z"/>
	<path d="M122.273,40.796c0-7.324,1.982-13.154,5.947-17.49c3.965-4.336,9.335-6.504,16.113-6.504
		c6.309,0,11.386,2.12,15.234,6.357c3.848,4.238,5.771,9.756,5.771,16.553c0,7.364-1.973,13.204-5.918,17.52
		c-0.938,1.016-1.944,1.914-3.018,2.695l12.744,9.141h-9.639l-8.613-6.387c-2.227,0.684-4.658,1.025-7.295,1.025
		c-6.445,0-11.612-2.119-15.498-6.357C124.216,53.111,122.273,47.593,122.273,40.796z M128.425,40.328
		c0,5.489,1.401,9.887,4.204,13.198c2.802,3.311,6.46,4.967,10.972,4.967c4.844,0,8.647-1.587,11.411-4.762
		c2.764-3.174,4.146-7.612,4.146-13.315c0-5.859-1.353-10.381-4.058-13.564c-2.706-3.183-6.412-4.775-11.118-4.775
		c-4.629,0-8.379,1.68-11.25,5.039C129.861,30.474,128.425,34.878,128.425,40.328z"/>
	<path d="M172.664,19.117c0-1.015,0.346-1.87,1.04-2.563c0.693-0.693,1.549-1.04,2.564-1.04
		c1.035,0,1.908,0.342,2.621,1.025c0.713,0.684,1.07,1.543,1.07,2.578c0,1.016-0.357,1.86-1.07,2.534s-1.586,1.011-2.621,1.011
		c-1.036,0-1.895-0.337-2.578-1.011C173.005,20.977,172.664,20.132,172.664,19.117z M173.338,62.945V30.542h5.742v32.403H173.338z"
		/>
	<path d="M187.693,59.928c0-1.055,0.361-1.943,1.084-2.666c0.722-0.723,1.621-1.084,2.695-1.084
		c1.094,0,2.002,0.365,2.725,1.098c0.722,0.732,1.084,1.617,1.084,2.652c0,1.016-0.362,1.889-1.084,2.621
		c-0.723,0.732-1.641,1.1-2.754,1.1c-1.074,0-1.969-0.367-2.682-1.1S187.693,60.943,187.693,59.928z"/>
	<path d="M210.369,17.564v45.381h-5.859V17.564H210.369z"/>
	<path d="M219.217,40.796c0-7.324,1.982-13.154,5.947-17.49s9.336-6.504,16.113-6.504
		c6.309,0,11.387,2.12,15.234,6.357c3.848,4.238,5.771,9.756,5.771,16.553c0,7.364-1.973,13.204-5.918,17.52
		s-9.219,6.475-15.82,6.475c-6.445,0-11.611-2.119-15.498-6.357S219.217,47.593,219.217,40.796z M225.369,40.328
		c0,5.489,1.4,9.887,4.203,13.198s6.461,4.967,10.973,4.967c4.844,0,8.646-1.587,11.41-4.762c2.764-3.174,4.146-7.612,4.146-13.315
		c0-5.859-1.354-10.381-4.059-13.564c-2.705-3.183-6.41-4.775-11.117-4.775c-4.629,0-8.379,1.68-11.25,5.039
		C226.805,30.474,225.369,34.878,225.369,40.328z"/>
</g>
<!-- <polygon fill="#00ADB5" points="307.37,32 287.371,67 267.37,32 "/> -->
<g>
</g>
<g>
</g>
<g>
</g>
<g>
</g>
<g>
</g>
<g>
</g>
</svg>
